<svg xmlns="http://www.w3.org/2000/svg" xmlns:xlink="http://www.w3.org/1999/xlink" width="120" zoomAndPan="magnify" viewBox="0 0 90 89.999999" height="120" preserveAspectRatio="xMidYMid meet" version="1.0"><defs><g/><clipPath id="42c01d5615"><path d="M 14 12 L 80 12 L 80 53 L 14 53 Z M 14 12 " clip-rule="nonzero"/></clipPath><clipPath id="e654a0fc84"><path d="M 10.945312 16.707031 L 74.976562 8.96875 L 79.296875 44.710938 L 15.261719 52.445312 Z M 10.945312 16.707031 " clip-rule="nonzero"/></clipPath><clipPath id="a971516dc7"><path d="M 10.945312 16.707031 L 74.976562 8.96875 L 82.714844 73.003906 L 18.679688 80.738281 Z M 10.945312 16.707031 " clip-rule="nonzero"/></clipPath><clipPath id="259564e647"><path d="M 28.691406 23.414062 L 63.941406 23.414062 L 63.941406 56.414062 L 28.691406 56.414062 Z M 28.691406 23.414062 " clip-rule="nonzero"/></clipPath></defs><rect x="-9" width="108" fill="#ffffff" y="-9" height="107.999999" fill-opacity="1"/><rect x="-9" width="108" fill="#ffffff" y="-9" height="107.999999" fill-opacity="1"/><rect x="-9" width="108" fill="#ffffff" y="-9" height="107.999999" fill-opacity="1"/><g clip-path="url(#42c01d5615)"><g clip-path="url(#e654a0fc84)"><g clip-path="url(#a971516dc7)"><path fill="#ff385c" d="M 50.695312 76.871094 C 33.007812 79.007812 16.9375 66.3125 14.8125 48.722656 C 12.6875 31.132812 25.273438 14.972656 42.960938 12.835938 C 60.648438 10.699219 76.707031 23.296875 78.847656 40.988281 C 80.984375 58.675781 68.285156 74.746094 50.695312 76.871094 Z M 43.199219 14.8125 C 26.597656 16.820312 14.78125 31.882812 16.789062 48.484375 C 18.792969 65.085938 33.855469 76.902344 50.457031 74.894531 C 67.058594 72.890625 78.875 57.828125 76.871094 41.226562 C 74.863281 24.625 59.703125 12.820312 43.199219 14.8125 Z M 43.199219 14.8125 " fill-opacity="1" fill-rule="nonzero"/></g></g></g><g clip-path="url(#259564e647)"><path fill="#000000" d="M 62.738281 41.9375 L 56.453125 40.886719 L 55.007812 35.550781 C 54.8125 34.84375 54.273438 34.296875 53.589844 34.097656 C 53.871094 33.800781 54.039062 33.394531 54.039062 32.960938 L 54.039062 30.074219 C 54.039062 29.15625 53.296875 28.402344 52.378906 28.402344 L 49.292969 28.402344 C 49.925781 27.886719 50.328125 27.101562 50.328125 26.222656 C 50.328125 24.675781 49.085938 23.421875 47.546875 23.421875 C 46.472656 23.421875 45.535156 24.035156 45.074219 24.9375 C 44.617188 24.035156 43.679688 23.421875 42.605469 23.421875 C 41.070312 23.421875 39.824219 24.675781 39.824219 26.222656 C 39.824219 27.101562 40.226562 27.886719 40.859375 28.402344 L 37.804688 28.402344 C 36.871094 28.402344 36.113281 29.164062 36.113281 30.105469 L 36.113281 32.914062 C 36.113281 33.324219 36.261719 33.699219 36.5 33.996094 L 35.980469 33.996094 C 35.007812 33.996094 34.164062 34.664062 33.949219 35.621094 L 32.621094 41.433594 C 32.308594 41.066406 31.855469 40.839844 31.34375 40.839844 L 30.378906 40.839844 C 29.449219 40.839844 28.691406 41.605469 28.691406 42.539062 L 28.691406 49.734375 C 28.691406 50.667969 29.449219 51.429688 30.378906 51.429688 L 31.34375 51.429688 C 31.777344 51.429688 32.164062 51.265625 32.464844 51.003906 C 32.636719 51.609375 33.191406 52.050781 33.847656 52.050781 L 34.273438 52.050781 C 34.4375 54.480469 36.445312 56.410156 38.902344 56.410156 C 41.363281 56.410156 43.371094 54.480469 43.535156 52.050781 L 44.160156 52.050781 L 44.160156 52.542969 C 44.160156 52.960938 44.5 53.296875 44.910156 53.296875 L 50.207031 53.296875 C 50.625 53.296875 50.957031 52.953125 50.957031 52.542969 L 50.957031 52.050781 L 52.199219 52.050781 C 52.363281 54.480469 54.371094 56.410156 56.832031 56.410156 C 59.289062 56.410156 61.296875 54.480469 61.460938 52.050781 L 62.503906 52.050781 C 63.300781 52.050781 63.941406 51.398438 63.941406 50.605469 L 63.941406 43.371094 C 63.941406 42.660156 63.441406 42.054688 62.738281 41.9375 Z M 32.402344 49.734375 C 32.402344 50.324219 31.921875 50.808594 31.335938 50.808594 L 30.378906 50.808594 C 29.789062 50.808594 29.3125 50.324219 29.3125 49.734375 L 29.3125 42.539062 C 29.3125 41.945312 29.789062 41.464844 30.378906 41.464844 L 31.34375 41.464844 C 31.929688 41.464844 32.410156 41.945312 32.410156 42.539062 L 32.410156 49.734375 Z M 55.808594 40.847656 L 49.023438 40.847656 C 48.722656 40.847656 48.480469 40.609375 48.480469 40.304688 L 48.480469 36.414062 C 48.480469 36.109375 48.722656 35.871094 49.023438 35.871094 L 54.457031 35.871094 Z M 51.574219 29.023438 L 52.386719 29.023438 C 52.957031 29.023438 53.429688 29.488281 53.429688 30.074219 L 53.429688 32.960938 C 53.429688 33.535156 52.964844 34.011719 52.386719 34.011719 L 51.574219 34.011719 Z M 50.335938 29.023438 L 50.957031 29.023438 L 50.957031 34.003906 L 50.335938 34.003906 Z M 49.71875 29.023438 L 49.71875 34.003906 L 48.90625 34.003906 C 48.335938 34.003906 47.863281 33.535156 47.863281 32.953125 L 47.863281 30.066406 C 47.863281 29.488281 48.328125 29.015625 48.90625 29.015625 L 49.71875 29.015625 Z M 47.554688 24.042969 C 48.746094 24.042969 49.71875 25.023438 49.71875 26.222656 C 49.71875 27.421875 48.746094 28.402344 47.554688 28.402344 C 46.363281 28.402344 45.390625 27.421875 45.390625 26.222656 C 45.390625 25.023438 46.363281 24.042969 47.554688 24.042969 Z M 47.546875 29.117188 C 47.523438 29.085938 47.5 29.054688 47.476562 29.023438 C 47.5 29.023438 47.53125 29.023438 47.554688 29.023438 C 47.578125 29.023438 47.59375 29.023438 47.617188 29.023438 C 47.59375 29.054688 47.570312 29.085938 47.546875 29.117188 Z M 47.617188 34.003906 L 47.476562 34.003906 C 47.5 33.972656 47.523438 33.941406 47.546875 33.910156 C 47.570312 33.941406 47.59375 33.972656 47.617188 34.003906 Z M 47.246094 30.105469 L 47.246094 32.914062 C 47.246094 33.511719 46.765625 33.996094 46.171875 33.996094 L 45.390625 33.996094 L 45.390625 29.015625 L 46.171875 29.015625 C 46.765625 29.023438 47.246094 29.511719 47.246094 30.105469 Z M 45.808594 28.402344 L 44.355469 28.402344 C 44.65625 28.160156 44.902344 27.847656 45.082031 27.507812 C 45.257812 27.847656 45.503906 28.160156 45.808594 28.402344 Z M 44.769531 29.023438 L 44.769531 34.003906 L 44.152344 34.003906 L 44.152344 29.023438 Z M 40.441406 26.222656 C 40.441406 25.023438 41.417969 24.042969 42.605469 24.042969 C 43.796875 24.042969 44.769531 25.023438 44.769531 26.222656 C 44.769531 27.421875 43.796875 28.402344 42.605469 28.402344 C 41.417969 28.402344 40.441406 27.421875 40.441406 26.222656 Z M 40.441406 29.023438 L 43.535156 29.023438 L 43.535156 34.003906 L 40.441406 34.003906 Z M 39.207031 29.023438 L 39.824219 29.023438 L 39.824219 34.003906 L 39.207031 34.003906 Z M 36.730469 30.105469 C 36.730469 29.503906 37.210938 29.023438 37.804688 29.023438 L 38.585938 29.023438 L 38.585938 34.003906 L 37.804688 34.003906 C 37.210938 34.003906 36.730469 33.511719 36.730469 32.921875 Z M 34.527344 35.871094 L 35.574219 35.871094 C 35.875 35.871094 36.113281 36.109375 36.113281 36.414062 L 36.113281 40.304688 C 36.113281 40.609375 35.875 40.847656 35.574219 40.847656 L 33.382812 40.847656 Z M 33.019531 44.582031 L 34.875 44.582031 L 34.875 46.449219 L 33.019531 46.449219 Z M 33.019531 48.316406 L 33.640625 48.316406 L 33.640625 48.941406 L 33.019531 48.941406 Z M 38.894531 55.785156 C 36.675781 55.785156 34.875 53.972656 34.875 51.742188 C 34.875 49.507812 36.675781 47.695312 38.894531 47.695312 C 41.113281 47.695312 42.917969 49.507812 42.917969 51.742188 C 42.917969 53.972656 41.113281 55.785156 38.894531 55.785156 Z M 50.335938 52.542969 C 50.335938 52.621094 50.273438 52.675781 50.207031 52.675781 L 44.910156 52.675781 C 44.832031 52.675781 44.777344 52.613281 44.777344 52.542969 L 44.777344 52.050781 L 50.34375 52.050781 L 50.34375 52.542969 Z M 56.832031 55.785156 C 54.613281 55.785156 52.8125 53.972656 52.8125 51.742188 C 52.8125 49.507812 54.613281 47.695312 56.832031 47.695312 C 59.050781 47.695312 60.851562 49.507812 60.851562 51.742188 C 60.851562 53.972656 59.050781 55.785156 56.832031 55.785156 Z M 63.324219 49.5625 L 62.707031 49.5625 L 62.707031 48.941406 L 63.324219 48.941406 Z M 63.324219 48.316406 L 62.394531 48.316406 C 62.226562 48.316406 62.085938 48.457031 62.085938 48.628906 L 62.085938 49.875 C 62.085938 50.046875 62.226562 50.183594 62.394531 50.183594 L 63.324219 50.183594 L 63.324219 50.605469 C 63.324219 51.0625 62.953125 51.429688 62.503906 51.429688 L 61.460938 51.429688 C 61.296875 49.003906 59.289062 47.074219 56.832031 47.074219 C 54.371094 47.074219 52.363281 49.003906 52.199219 51.429688 L 43.527344 51.429688 C 43.363281 49.003906 41.355469 47.074219 38.894531 47.074219 C 36.4375 47.074219 34.429688 49.003906 34.265625 51.429688 L 33.839844 51.429688 C 33.382812 51.429688 33.019531 51.054688 33.019531 50.605469 L 33.019531 49.5625 L 33.949219 49.5625 C 34.117188 49.5625 34.257812 49.421875 34.257812 49.25 L 34.257812 48.007812 C 34.257812 47.835938 34.117188 47.695312 33.949219 47.695312 L 33.019531 47.695312 L 33.019531 47.074219 L 35.1875 47.074219 C 35.355469 47.074219 35.496094 46.933594 35.496094 46.761719 L 35.496094 44.273438 C 35.496094 44.101562 35.355469 43.960938 35.1875 43.960938 L 33.019531 43.960938 L 33.019531 42.445312 L 33.246094 41.472656 L 35.574219 41.472656 C 36.214844 41.472656 36.730469 40.949219 36.730469 40.304688 L 36.730469 36.414062 C 36.730469 35.769531 36.214844 35.246094 35.574219 35.246094 L 34.785156 35.246094 C 35.054688 34.867188 35.488281 34.625 35.980469 34.625 L 53.003906 34.625 C 53.492188 34.625 53.933594 34.867188 54.203125 35.246094 L 49.023438 35.246094 C 48.382812 35.246094 47.863281 35.769531 47.863281 36.414062 L 47.863281 40.304688 C 47.863281 40.949219 48.382812 41.472656 49.023438 41.472656 L 56.1875 41.472656 L 62.644531 42.554688 C 63.039062 42.621094 63.324219 42.957031 63.332031 43.363281 C 62.289062 43.507812 61.476562 44.421875 61.476562 45.515625 C 61.476562 46.613281 62.28125 47.523438 63.332031 47.671875 L 63.332031 48.316406 Z M 63.324219 47.042969 C 62.621094 46.894531 62.085938 46.273438 62.085938 45.515625 C 62.085938 44.761719 62.621094 44.140625 63.324219 43.992188 Z M 63.324219 47.042969 " fill-opacity="1" fill-rule="nonzero"/></g><path fill="#000000" d="M 45.46875 35.246094 L 38.511719 35.246094 C 37.867188 35.246094 37.351562 35.769531 37.351562 36.414062 L 37.351562 40.304688 C 37.351562 40.949219 37.867188 41.472656 38.511719 41.472656 L 45.46875 41.472656 C 46.109375 41.472656 46.625 40.949219 46.625 40.304688 L 46.625 36.414062 C 46.625 35.769531 46.109375 35.246094 45.46875 35.246094 Z M 46.007812 40.304688 C 46.007812 40.609375 45.769531 40.847656 45.46875 40.847656 L 38.511719 40.847656 C 38.207031 40.847656 37.96875 40.609375 37.96875 40.304688 L 37.96875 36.414062 C 37.96875 36.109375 38.207031 35.871094 38.511719 35.871094 L 45.46875 35.871094 C 45.769531 35.871094 46.007812 36.109375 46.007812 36.414062 Z M 46.007812 40.304688 " fill-opacity="1" fill-rule="nonzero"/><path fill="#000000" d="M 40.132812 43.960938 L 38.894531 43.960938 C 38.726562 43.960938 38.585938 44.101562 38.585938 44.273438 C 38.585938 44.445312 38.726562 44.582031 38.894531 44.582031 L 40.132812 44.582031 C 40.304688 44.582031 40.441406 44.445312 40.441406 44.273438 C 40.441406 44.101562 40.304688 43.960938 40.132812 43.960938 Z M 40.132812 43.960938 " fill-opacity="1" fill-rule="nonzero"/><path fill="#000000" d="M 50.644531 43.960938 L 49.410156 43.960938 C 49.238281 43.960938 49.101562 44.101562 49.101562 44.273438 C 49.101562 44.445312 49.238281 44.582031 49.410156 44.582031 L 50.644531 44.582031 C 50.816406 44.582031 50.957031 44.445312 50.957031 44.273438 C 50.957031 44.101562 50.816406 43.960938 50.644531 43.960938 Z M 50.644531 43.960938 " fill-opacity="1" fill-rule="nonzero"/><path fill="#000000" d="M 38.894531 49.5625 C 37.707031 49.5625 36.730469 50.542969 36.730469 51.742188 C 36.730469 52.9375 37.707031 53.917969 38.894531 53.917969 C 40.085938 53.917969 41.0625 52.9375 41.0625 51.742188 C 41.0625 50.542969 40.085938 49.5625 38.894531 49.5625 Z M 38.894531 53.296875 C 38.046875 53.296875 37.351562 52.597656 37.351562 51.742188 C 37.351562 50.886719 38.046875 50.183594 38.894531 50.183594 C 39.746094 50.183594 40.441406 50.886719 40.441406 51.742188 C 40.441406 52.597656 39.746094 53.296875 38.894531 53.296875 Z M 38.894531 53.296875 " fill-opacity="1" fill-rule="nonzero"/><path fill="#000000" d="M 56.832031 49.5625 C 55.640625 49.5625 54.667969 50.542969 54.667969 51.742188 C 54.667969 52.9375 55.640625 53.917969 56.832031 53.917969 C 58.019531 53.917969 58.996094 52.9375 58.996094 51.742188 C 58.996094 50.542969 58.019531 49.5625 56.832031 49.5625 Z M 56.832031 53.296875 C 55.980469 53.296875 55.285156 52.597656 55.285156 51.742188 C 55.285156 50.886719 55.980469 50.183594 56.832031 50.183594 C 57.679688 50.183594 58.375 50.886719 58.375 51.742188 C 58.375 52.597656 57.679688 53.296875 56.832031 53.296875 Z M 56.832031 53.296875 " fill-opacity="1" fill-rule="nonzero"/><path fill="#000000" d="M 42.746094 27.691406 C 43.179688 27.691406 43.613281 27.53125 43.945312 27.195312 C 44.066406 27.070312 44.066406 26.875 43.945312 26.75 C 43.820312 26.625 43.628906 26.625 43.503906 26.75 C 43.300781 26.953125 43.03125 27.070312 42.746094 27.070312 C 42.460938 27.070312 42.1875 26.960938 41.988281 26.75 C 41.839844 26.605469 41.757812 26.402344 41.757812 26.183594 C 41.757812 25.964844 41.839844 25.769531 41.988281 25.617188 C 42.097656 25.507812 42.242188 25.445312 42.398438 25.445312 C 42.550781 25.445312 42.699219 25.507812 42.808594 25.617188 C 42.960938 25.769531 42.960938 26.027344 42.808594 26.183594 C 42.683594 26.308594 42.683594 26.503906 42.808594 26.625 C 42.929688 26.75 43.125 26.75 43.25 26.625 C 43.644531 26.230469 43.644531 25.578125 43.25 25.179688 C 43.023438 24.953125 42.722656 24.828125 42.40625 24.828125 C 42.089844 24.828125 41.789062 24.953125 41.5625 25.179688 C 41.292969 25.453125 41.144531 25.808594 41.144531 26.183594 C 41.144531 26.558594 41.292969 26.921875 41.5625 27.1875 C 41.878906 27.523438 42.3125 27.691406 42.746094 27.691406 Z M 42.746094 27.691406 " fill-opacity="1" fill-rule="nonzero"/><path fill="#000000" d="M 47.691406 27.691406 C 48.125 27.691406 48.558594 27.53125 48.890625 27.195312 C 49.015625 27.070312 49.015625 26.875 48.890625 26.75 C 48.769531 26.625 48.574219 26.625 48.449219 26.75 C 48.25 26.953125 47.980469 27.070312 47.691406 27.070312 C 47.40625 27.070312 47.136719 26.960938 46.9375 26.75 C 46.789062 26.605469 46.703125 26.402344 46.703125 26.183594 C 46.703125 25.964844 46.789062 25.769531 46.9375 25.617188 C 47.042969 25.507812 47.191406 25.445312 47.34375 25.445312 C 47.5 25.445312 47.648438 25.507812 47.753906 25.617188 C 47.910156 25.769531 47.910156 26.027344 47.753906 26.183594 C 47.632812 26.308594 47.632812 26.503906 47.753906 26.625 C 47.878906 26.75 48.070312 26.75 48.195312 26.625 C 48.589844 26.230469 48.589844 25.578125 48.195312 25.179688 C 47.972656 24.953125 47.671875 24.828125 47.351562 24.828125 C 47.035156 24.828125 46.734375 24.953125 46.511719 25.179688 C 46.238281 25.453125 46.09375 25.808594 46.09375 26.183594 C 46.09375 26.558594 46.238281 26.921875 46.511719 27.1875 C 46.828125 27.523438 47.261719 27.691406 47.691406 27.691406 Z M 47.691406 27.691406 " fill-opacity="1" fill-rule="nonzero"/><g fill="#040606" fill-opacity="1"><g transform="translate(8.983806, 73.335334)"><g><path d="M 10.246094 -17.90625 L 1.300781 -16.347656 C 0.253906 -16.128906 -0.0859375 -15.460938 0.015625 -14.867188 C 0.113281 -14.316406 0.613281 -13.851562 1.277344 -13.964844 L 4.136719 -14.464844 L 2.117188 -2.136719 C 2.078125 -1.9375 2.089844 -1.75 2.117188 -1.605469 C 2.25 -0.828125 3.007812 -0.523438 3.707031 -0.644531 C 4.335938 -0.753906 4.90625 -1.195312 5.023438 -1.9375 L 7.179688 -14.996094 L 10.1875 -15.519531 C 11.222656 -15.699219 11.554688 -16.402344 11.453125 -16.992188 C 11.355469 -17.546875 10.875 -18.015625 10.246094 -17.90625 Z M 10.246094 -17.90625 "/></g></g></g><g fill="#040606" fill-opacity="1"><g transform="translate(20.017498, 71.414739)"><g><path d="M 8.421875 -6.980469 C 8.039062 -5.050781 7.332031 -3.539062 6.554688 -3.402344 C 6.296875 -3.359375 6.125 -3.574219 6.082031 -3.835938 C 6.0625 -3.945312 6.054688 -4.09375 6.085938 -4.253906 L 6.644531 -7.46875 C 6.691406 -7.855469 6.707031 -8.203125 6.65625 -8.515625 C 6.347656 -10.269531 4.007812 -10.621094 2.917969 -10.753906 C 2.949219 -10.910156 2.9375 -11.082031 2.914062 -11.230469 C 2.765625 -12.078125 1.882812 -12.664062 1.050781 -12.519531 C -0.0351562 -12.332031 -0.515625 -11.257812 -0.332031 -10.207031 C -0.25 -9.746094 -0.00390625 -9.296875 0.355469 -8.976562 L -0.355469 -5.109375 C -0.367188 -4.953125 -0.359375 -4.804688 -0.339844 -4.691406 C -0.234375 -4.085938 0.296875 -3.855469 0.816406 -3.945312 C 1.332031 -4.035156 1.816406 -4.421875 1.933594 -5.050781 L 2.484375 -8 C 3.03125 -7.921875 3.738281 -7.914062 3.847656 -7.285156 C 3.863281 -7.191406 3.863281 -7.078125 3.847656 -6.941406 L 3.429688 -4.550781 C 3.355469 -4.101562 3.347656 -3.699219 3.414062 -3.332031 C 3.691406 -1.726562 5.148438 -0.894531 6.679688 -1.164062 C 8.691406 -1.511719 10.207031 -3.621094 10.75 -6.929688 C 10.769531 -7.046875 10.773438 -7.140625 10.753906 -7.234375 C 10.660156 -7.785156 9.984375 -8.050781 9.394531 -7.945312 C 8.914062 -7.863281 8.492188 -7.5625 8.421875 -6.980469 Z M 8.421875 -6.980469 "/></g></g></g><g fill="#040606" fill-opacity="1"><g transform="translate(28.744815, 69.895606)"><g><path d="M 2.78125 -13.390625 C 3.613281 -13.535156 4.175781 -14.339844 4.027344 -15.1875 C 3.882812 -16.019531 3.085938 -16.5625 2.257812 -16.417969 C 1.425781 -16.273438 0.859375 -15.492188 1.003906 -14.660156 C 1.152344 -13.8125 1.953125 -13.25 2.78125 -13.390625 Z M 1.929688 -3.546875 L 2.949219 -9.695312 C 2.984375 -9.949219 3.03125 -10.222656 3 -10.40625 C 2.855469 -11.21875 2.175781 -11.539062 1.546875 -11.429688 C 0.976562 -11.328125 0.4375 -10.816406 0.292969 -9.898438 C 0.00390625 -8.0625 -0.390625 -5.730469 -0.679688 -3.910156 C -0.726562 -3.523438 -0.789062 -3 -0.734375 -2.6875 C -0.433594 -0.953125 1.179688 -0.207031 2.878906 -0.5 C 4.6875 -0.816406 6.488281 -2.269531 7.113281 -6.3125 C 7.132812 -6.429688 7.128906 -6.546875 7.109375 -6.65625 C 7.011719 -7.226562 6.398438 -7.480469 5.84375 -7.386719 C 5.34375 -7.300781 4.890625 -6.953125 4.769531 -6.34375 C 4.320312 -3.792969 3.472656 -2.867188 2.734375 -2.738281 C 2.3125 -2.664062 1.988281 -2.894531 1.925781 -3.242188 C 1.910156 -3.335938 1.910156 -3.429688 1.929688 -3.546875 Z M 1.929688 -3.546875 "/></g></g></g><g fill="#040606" fill-opacity="1"><g transform="translate(33.837287, 69.009178)"><g><path d="M 9.132812 -7.066406 C 8.804688 -5.449219 7.902344 -4.285156 6.710938 -3.601562 L 6.808594 -4.019531 C 7.082031 -5.511719 7.351562 -7.136719 7.621094 -8.644531 C 7.675781 -8.976562 7.675781 -9.300781 7.621094 -9.632812 C 7.359375 -11.128906 5.902344 -12.1875 4.460938 -11.9375 C 3.964844 -11.847656 3.390625 -11.652344 3.042969 -11.25 C 3 -11.699219 2.332031 -11.945312 1.667969 -11.828125 C 1.058594 -11.722656 0.527344 -11.289062 0.382812 -10.464844 L -1.949219 3.324219 C -2 3.578125 -2 3.789062 -1.96875 3.972656 C -1.839844 4.730469 -1.144531 5.007812 -0.480469 4.894531 C 0.128906 4.785156 0.6875 4.386719 0.789062 3.664062 L 1.503906 -0.964844 C 2.152344 -0.621094 3.304688 -0.574219 4.835938 -0.839844 C 8.414062 -1.464844 10.84375 -3.351562 11.453125 -7.050781 C 11.480469 -7.226562 11.492188 -7.378906 11.46875 -7.507812 C 11.363281 -8.117188 10.78125 -8.398438 10.226562 -8.300781 C 9.730469 -8.214844 9.230469 -7.804688 9.132812 -7.066406 Z M 2.011719 -3.847656 L 2.742188 -8.386719 C 2.847656 -9.089844 3.273438 -9.484375 3.789062 -9.574219 C 4.230469 -9.652344 4.691406 -9.410156 4.773438 -8.949219 C 4.800781 -8.78125 4.792969 -8.609375 4.769531 -8.414062 C 4.5625 -6.878906 4.285156 -5.421875 4.035156 -3.894531 C 3.929688 -3.308594 3.488281 -2.886719 2.996094 -2.785156 C 2.515625 -2.699219 2.101562 -2.894531 2.011719 -3.410156 C 1.988281 -3.539062 1.980469 -3.691406 2.011719 -3.847656 Z M 2.011719 -3.847656 "/></g></g></g><g fill="#040606" fill-opacity="1"><g transform="translate(43.284193, 67.364789)"><g/></g></g><g fill="#ff385c" fill-opacity="1"><g transform="translate(50.330224, 66.138311)"><g><path d="M 9.371094 -7.105469 C 8.945312 -4.75 8.085938 -3.671875 7.21875 -3.519531 C 6.886719 -3.460938 6.675781 -3.59375 6.621094 -3.910156 C 6.597656 -4.039062 6.609375 -4.191406 6.632812 -4.386719 L 7.359375 -8.734375 C 7.421875 -9.125 7.4375 -9.46875 7.382812 -9.78125 C 7.128906 -11.257812 5.679688 -12.148438 4.203125 -11.890625 C 3.484375 -11.765625 2.941406 -11.5 2.523438 -11.066406 C 2.355469 -11.378906 1.859375 -11.484375 1.363281 -11.394531 C 0.84375 -11.304688 0.390625 -10.980469 0.292969 -10.429688 L -1.285156 -1.277344 C -1.3125 -1.101562 -1.304688 -0.953125 -1.28125 -0.804688 C -1.160156 -0.121094 -0.566406 0.136719 0.0234375 0.0351562 C 0.671875 -0.078125 1.339844 -0.613281 1.46875 -1.492188 C 1.804688 -3.394531 2.25 -6.074219 2.570312 -7.957031 C 2.90625 -8.964844 3.476562 -9.519531 3.992188 -9.609375 C 4.324219 -9.667969 4.601562 -9.488281 4.664062 -9.136719 C 4.6875 -9.007812 4.679688 -8.835938 4.652344 -8.660156 L 3.964844 -4.625 C 3.894531 -4.175781 3.871094 -3.753906 3.9375 -3.367188 C 4.234375 -1.667969 5.792969 -1.007812 7.363281 -1.28125 C 9.246094 -1.609375 11.035156 -3.230469 11.679688 -7.050781 C 11.710938 -7.210938 11.722656 -7.363281 11.699219 -7.492188 C 11.597656 -8.082031 11.007812 -8.304688 10.453125 -8.207031 C 9.953125 -8.121094 9.449219 -7.746094 9.371094 -7.105469 Z M 9.371094 -7.105469 "/></g></g></g><g fill="#ff385c" fill-opacity="1"><g transform="translate(60.016994, 64.45217)"><g><path d="M 8.429688 -6.828125 C 7.992188 -4.546875 6.203125 -3.34375 4.636719 -3.070312 C 3.289062 -2.835938 2.328125 -3.332031 2.179688 -4.183594 C 2.152344 -4.347656 2.140625 -4.515625 2.183594 -4.714844 L 2.269531 -5.089844 C 2.863281 -4.851562 3.566406 -4.746094 4.304688 -4.875 C 5.984375 -5.167969 7.277344 -6.476562 7.484375 -8.222656 C 7.515625 -8.589844 7.511719 -8.949219 7.457031 -9.261719 C 7.152344 -11.015625 5.53125 -12.121094 3.445312 -11.757812 C 1.804688 -11.472656 0.367188 -10.234375 0.0429688 -8.277344 L -0.496094 -4.933594 C -0.566406 -4.464844 -0.582031 -4.003906 -0.507812 -3.582031 C -0.128906 -1.382812 2.175781 -0.378906 4.871094 -0.847656 C 7.4375 -1.292969 10.132812 -3.054688 10.738281 -6.792969 C 10.765625 -6.949219 10.761719 -7.082031 10.742188 -7.191406 C 10.644531 -7.765625 10.074219 -7.988281 9.519531 -7.890625 C 9.003906 -7.800781 8.496094 -7.429688 8.429688 -6.828125 Z M 3.769531 -9.574219 C 4.289062 -9.664062 4.695312 -9.296875 4.785156 -8.761719 C 4.8125 -8.613281 4.820312 -8.460938 4.789062 -8.304688 C 4.710938 -7.664062 4.195312 -7.347656 3.644531 -7.25 C 3.292969 -7.1875 2.929688 -7.203125 2.644531 -7.304688 L 2.839844 -8.480469 C 2.941406 -9.085938 3.347656 -9.5 3.769531 -9.574219 Z M 3.769531 -9.574219 "/></g></g></g><g fill="#ff385c" fill-opacity="1"><g transform="translate(68.762763, 62.929826)"><g><path d="M 8.890625 -6.925781 C 8.636719 -5.761719 8.121094 -4.894531 7.359375 -4.246094 C 7.355469 -4.492188 7.351562 -4.722656 7.3125 -4.960938 C 7.125 -6.03125 6.375 -6.945312 5.707031 -7.722656 C 5.230469 -8.285156 4.753906 -8.851562 4.578125 -9.410156 C 5.058594 -9.71875 5.359375 -10.382812 5.261719 -10.933594 C 5.125 -11.726562 4.386719 -12.359375 3.464844 -12.199219 C 2.765625 -12.078125 2.125 -11.605469 1.898438 -10.824219 C 1.421875 -9.296875 0.894531 -7.742188 0.398438 -6.230469 C -0.78125 -5.699219 -1.148438 -4.191406 -0.941406 -3.011719 C -0.628906 -1.203125 1.425781 -0.113281 4.691406 -0.683594 C 7.902344 -1.242188 10.566406 -2.960938 11.210938 -6.914062 C 11.234375 -6.992188 11.21875 -7.085938 11.207031 -7.160156 C 11.113281 -7.695312 10.4375 -7.976562 9.847656 -7.875 C 9.402344 -7.796875 9 -7.496094 8.890625 -6.925781 Z M 2.953125 -6.40625 L 3.058594 -6.785156 C 3.726562 -6.21875 4.324219 -5.410156 4.476562 -4.542969 C 4.625 -3.675781 4.289062 -2.875 3.320312 -2.667969 C 2.691406 -2.558594 2.089844 -2.738281 1.804688 -3.183594 C 1.957031 -3.171875 2.105469 -3.199219 2.234375 -3.222656 C 3.304688 -3.40625 3.773438 -4.421875 3.617188 -5.324219 C 3.542969 -5.75 3.320312 -6.148438 2.953125 -6.40625 Z M 2.953125 -6.40625 "/></g></g></g><g fill="#ff385c" fill-opacity="1"><g transform="translate(77.969805, 61.327189)"><g><path d="M 5.679688 -6.351562 C 5.296875 -4.191406 4.304688 -3.011719 3.234375 -2.824219 C 2.570312 -2.710938 2.09375 -3.042969 2.007812 -3.542969 C 1.984375 -3.671875 1.996094 -3.828125 2.011719 -3.960938 L 2.921875 -9.425781 L 4.121094 -9.632812 C 5.0625 -9.796875 5.445312 -10.546875 5.339844 -11.15625 C 5.253906 -11.636719 4.867188 -12.007812 4.167969 -11.882812 L 3.335938 -11.738281 L 3.945312 -15.554688 C 3.960938 -15.6875 3.960938 -15.804688 3.941406 -15.914062 C 3.820312 -16.597656 3.246094 -17.066406 2.433594 -16.925781 C 1.824219 -16.820312 1.382812 -16.304688 1.273438 -15.621094 L 0.511719 -11.25 L -0.261719 -11.113281 C -1.257812 -10.941406 -1.574219 -10.238281 -1.46875 -9.648438 C -1.378906 -9.132812 -0.988281 -8.742188 -0.492188 -8.832031 L 0.117188 -8.9375 L -0.660156 -4.21875 L -0.660156 -4.238281 C -0.730469 -3.769531 -0.734375 -3.351562 -0.667969 -2.964844 C -0.339844 -1.082031 1.53125 -0.265625 3.433594 -0.597656 C 5.792969 -1.007812 7.464844 -3.105469 7.988281 -6.3125 C 8.003906 -6.449219 8.015625 -6.585938 7.996094 -6.695312 C 7.902344 -7.25 7.304688 -7.507812 6.734375 -7.40625 C 6.273438 -7.328125 5.800781 -6.980469 5.679688 -6.351562 Z M 5.679688 -6.351562 "/></g></g></g></svg>