<svg xmlns="http://www.w3.org/2000/svg" xmlns:xlink="http://www.w3.org/1999/xlink" width="500" zoomAndPan="magnify" viewBox="0 0 375 374.999991" height="500" preserveAspectRatio="xMidYMid meet" version="1.0"><defs><g/><clipPath id="a827da6e91"><path d="M 60 52 L 329 52 L 329 220 L 60 220 Z M 60 52 " clip-rule="nonzero"/></clipPath><clipPath id="d479580511"><path d="M 45.597656 69.605469 L 311.414062 37.492188 L 329.496094 187.152344 L 63.679688 219.265625 Z M 45.597656 69.605469 " clip-rule="nonzero"/></clipPath><clipPath id="4f6b7c1902"><path d="M 45.597656 69.605469 L 311.414062 37.492188 L 343.527344 303.308594 L 77.710938 335.421875 Z M 45.597656 69.605469 " clip-rule="nonzero"/></clipPath><clipPath id="c01ba4c5b2"><path d="M 119.550781 97.5625 L 265.800781 97.5625 L 265.800781 233.3125 L 119.550781 233.3125 Z M 119.550781 97.5625 " clip-rule="nonzero"/></clipPath></defs><rect x="-37.5" width="450" fill="#ffffff" y="-37.499999" height="449.999989" fill-opacity="1"/><rect x="-37.5" width="450" fill="#ffffff" y="-37.499999" height="449.999989" fill-opacity="1"/><rect x="-37.5" width="450" fill="#ffffff" y="-37.499999" height="449.999989" fill-opacity="1"/><g clip-path="url(#a827da6e91)"><g clip-path="url(#d479580511)"><g clip-path="url(#4f6b7c1902)"><path fill="#ff385c" d="M 210.621094 319.367188 C 137.191406 328.238281 70.476562 275.53125 61.65625 202.515625 C 52.832031 129.496094 105.078125 62.417969 178.507812 53.546875 C 251.933594 44.675781 318.601562 96.972656 327.472656 170.398438 C 336.34375 243.828125 283.636719 310.542969 210.621094 319.367188 Z M 179.496094 61.753906 C 110.582031 70.078125 61.53125 132.609375 69.859375 201.523438 C 78.183594 270.4375 140.714844 319.488281 209.628906 311.160156 C 278.542969 302.835938 327.59375 240.308594 319.269531 171.390625 C 310.941406 102.476562 248.003906 53.476562 179.496094 61.753906 Z M 179.496094 61.753906 " fill-opacity="1" fill-rule="nonzero"/></g></g></g><g clip-path="url(#c01ba4c5b2)"><path fill="#000000" d="M 260.796875 173.761719 L 234.722656 169.441406 L 228.726562 147.480469 C 227.925781 144.566406 225.679688 142.328125 222.855469 141.496094 C 224.011719 140.277344 224.714844 138.613281 224.714844 136.820312 L 224.714844 124.945312 C 224.714844 121.167969 221.636719 118.0625 217.820312 118.0625 L 205.023438 118.0625 C 207.652344 115.953125 209.320312 112.71875 209.320312 109.101562 C 209.320312 102.730469 204.160156 97.578125 197.777344 97.578125 C 193.316406 97.578125 189.4375 100.105469 187.511719 103.820312 C 185.621094 100.105469 181.738281 97.578125 177.28125 97.578125 C 170.898438 97.578125 165.734375 102.730469 165.734375 109.101562 C 165.734375 112.71875 167.402344 115.953125 170.035156 118.0625 L 157.363281 118.0625 C 153.484375 118.0625 150.339844 121.199219 150.339844 125.074219 L 150.339844 136.628906 C 150.339844 138.328125 150.949219 139.863281 151.945312 141.078125 L 149.796875 141.078125 C 145.753906 141.078125 142.257812 143.832031 141.359375 147.769531 L 135.84375 171.679688 C 134.5625 170.175781 132.667969 169.25 130.550781 169.25 L 126.542969 169.25 C 122.695312 169.25 119.550781 172.386719 119.550781 176.226562 L 119.550781 205.835938 C 119.550781 209.675781 122.695312 212.8125 126.542969 212.8125 L 130.550781 212.8125 C 132.347656 212.8125 133.953125 212.140625 135.203125 211.054688 C 135.910156 213.550781 138.21875 215.375 140.945312 215.375 L 142.707031 215.375 C 143.382812 225.363281 151.71875 233.300781 161.917969 233.300781 C 172.117188 233.300781 180.457031 225.363281 181.128906 215.375 L 183.726562 215.375 L 183.726562 217.390625 C 183.726562 219.121094 185.140625 220.496094 186.839844 220.496094 L 208.808594 220.496094 C 210.539062 220.496094 211.917969 219.089844 211.917969 217.390625 L 211.917969 215.375 L 217.082031 215.375 C 217.757812 225.363281 226.097656 233.300781 236.292969 233.300781 C 246.492188 233.300781 254.832031 225.363281 255.507812 215.375 L 259.835938 215.375 C 263.140625 215.375 265.800781 212.6875 265.800781 209.421875 L 265.800781 179.652344 C 265.800781 176.738281 263.714844 174.242188 260.796875 173.761719 Z M 134.945312 205.835938 C 134.945312 208.269531 132.957031 210.253906 130.519531 210.253906 L 126.542969 210.253906 C 124.105469 210.253906 122.117188 208.269531 122.117188 205.835938 L 122.117188 176.226562 C 122.117188 173.792969 124.105469 171.808594 126.542969 171.808594 L 130.550781 171.808594 C 132.988281 171.808594 134.976562 173.792969 134.976562 176.226562 L 134.976562 205.835938 Z M 232.0625 169.28125 L 203.902344 169.28125 C 202.652344 169.28125 201.65625 168.289062 201.65625 167.039062 L 201.65625 151.035156 C 201.65625 149.785156 202.652344 148.792969 203.902344 148.792969 L 226.449219 148.792969 Z M 214.484375 120.625 L 217.851562 120.625 C 220.226562 120.625 222.183594 122.546875 222.183594 124.945312 L 222.183594 136.820312 C 222.183594 139.191406 220.257812 141.144531 217.851562 141.144531 L 214.484375 141.144531 Z M 209.355469 120.625 L 211.917969 120.625 L 211.917969 141.109375 L 209.355469 141.109375 Z M 206.789062 120.625 L 206.789062 141.109375 L 203.421875 141.109375 C 201.046875 141.109375 199.089844 139.191406 199.089844 136.789062 L 199.089844 124.914062 C 199.089844 122.546875 201.015625 120.59375 203.421875 120.59375 L 206.789062 120.59375 Z M 197.808594 100.136719 C 202.746094 100.136719 206.789062 104.171875 206.789062 109.101562 C 206.789062 114.03125 202.746094 118.0625 197.808594 118.0625 C 192.867188 118.0625 188.828125 114.03125 188.828125 109.101562 C 188.828125 104.171875 192.867188 100.136719 197.808594 100.136719 Z M 197.777344 121.007812 C 197.679688 120.878906 197.582031 120.753906 197.488281 120.625 C 197.582031 120.625 197.710938 120.625 197.808594 120.625 C 197.902344 120.625 197.96875 120.625 198.066406 120.625 C 197.96875 120.753906 197.871094 120.878906 197.777344 121.007812 Z M 198.066406 141.109375 L 197.488281 141.109375 C 197.582031 140.984375 197.679688 140.855469 197.777344 140.726562 C 197.871094 140.855469 197.96875 140.984375 198.066406 141.109375 Z M 196.523438 125.074219 L 196.523438 136.628906 C 196.523438 139.09375 194.535156 141.078125 192.066406 141.078125 L 188.828125 141.078125 L 188.828125 120.59375 L 192.066406 120.59375 C 194.535156 120.625 196.523438 122.640625 196.523438 125.074219 Z M 190.558594 118.0625 L 184.53125 118.0625 C 185.78125 117.070312 186.808594 115.792969 187.542969 114.382812 C 188.28125 115.792969 189.308594 117.070312 190.558594 118.0625 Z M 186.261719 120.625 L 186.261719 141.109375 L 183.695312 141.109375 L 183.695312 120.625 Z M 168.300781 109.101562 C 168.300781 104.171875 172.34375 100.136719 177.28125 100.136719 C 182.222656 100.136719 186.261719 104.171875 186.261719 109.101562 C 186.261719 114.03125 182.222656 118.0625 177.28125 118.0625 C 172.34375 118.0625 168.300781 114.03125 168.300781 109.101562 Z M 168.300781 120.625 L 181.128906 120.625 L 181.128906 141.109375 L 168.300781 141.109375 Z M 163.167969 120.625 L 165.734375 120.625 L 165.734375 141.109375 L 163.167969 141.109375 Z M 152.90625 125.074219 C 152.90625 122.609375 154.894531 120.625 157.363281 120.625 L 160.605469 120.625 L 160.605469 141.109375 L 157.363281 141.109375 C 154.894531 141.109375 152.90625 139.09375 152.90625 136.660156 Z M 143.765625 148.792969 L 148.097656 148.792969 C 149.347656 148.792969 150.339844 149.785156 150.339844 151.035156 L 150.339844 167.039062 C 150.339844 168.289062 149.347656 169.28125 148.097656 169.28125 L 139.019531 169.28125 Z M 137.511719 184.644531 L 145.210938 184.644531 L 145.210938 192.328125 L 137.511719 192.328125 Z M 137.511719 200.011719 L 140.078125 200.011719 L 140.078125 202.570312 L 137.511719 202.570312 Z M 161.886719 230.738281 C 152.683594 230.738281 145.210938 223.28125 145.210938 214.09375 C 145.210938 204.90625 152.683594 197.449219 161.886719 197.449219 C 171.089844 197.449219 178.566406 204.90625 178.566406 214.09375 C 178.566406 223.28125 171.089844 230.738281 161.886719 230.738281 Z M 209.355469 217.390625 C 209.355469 217.710938 209.097656 217.9375 208.808594 217.9375 L 186.839844 217.9375 C 186.519531 217.9375 186.292969 217.679688 186.292969 217.390625 L 186.292969 215.375 L 209.386719 215.375 L 209.386719 217.390625 Z M 236.292969 230.738281 C 227.089844 230.738281 219.617188 223.28125 219.617188 214.09375 C 219.617188 204.90625 227.089844 197.449219 236.292969 197.449219 C 245.5 197.449219 252.972656 204.90625 252.972656 214.09375 C 252.972656 223.28125 245.5 230.738281 236.292969 230.738281 Z M 263.234375 205.132812 L 260.667969 205.132812 L 260.667969 202.570312 L 263.234375 202.570312 Z M 263.234375 200.011719 L 259.386719 200.011719 C 258.679688 200.011719 258.105469 200.585938 258.105469 201.289062 L 258.105469 206.410156 C 258.105469 207.117188 258.679688 207.691406 259.386719 207.691406 L 263.234375 207.691406 L 263.234375 209.421875 C 263.234375 211.308594 261.695312 212.8125 259.835938 212.8125 L 255.507812 212.8125 C 254.832031 202.828125 246.492188 194.886719 236.292969 194.886719 C 226.097656 194.886719 217.757812 202.828125 217.082031 212.8125 L 181.097656 212.8125 C 180.425781 202.828125 172.085938 194.886719 161.886719 194.886719 C 151.6875 194.886719 143.347656 202.828125 142.675781 212.8125 L 140.910156 212.8125 C 139.019531 212.8125 137.511719 211.277344 137.511719 209.421875 L 137.511719 205.132812 L 141.359375 205.132812 C 142.066406 205.132812 142.644531 204.554688 142.644531 203.851562 L 142.644531 198.730469 C 142.644531 198.023438 142.066406 197.449219 141.359375 197.449219 L 137.511719 197.449219 L 137.511719 194.886719 L 146.492188 194.886719 C 147.199219 194.886719 147.773438 194.3125 147.773438 193.609375 L 147.773438 183.363281 C 147.773438 182.660156 147.199219 182.085938 146.492188 182.085938 L 137.511719 182.085938 L 137.511719 175.84375 L 138.441406 171.839844 L 148.097656 171.839844 C 150.757812 171.839844 152.90625 169.695312 152.90625 167.039062 L 152.90625 151.035156 C 152.90625 148.378906 150.757812 146.234375 148.097656 146.234375 L 144.824219 146.234375 C 145.945312 144.664062 147.742188 143.671875 149.796875 143.671875 L 220.417969 143.671875 C 222.441406 143.671875 224.269531 144.664062 225.390625 146.234375 L 203.902344 146.234375 C 201.238281 146.234375 199.089844 148.378906 199.089844 151.035156 L 199.089844 167.039062 C 199.089844 169.695312 201.238281 171.839844 203.902344 171.839844 L 233.632812 171.839844 L 260.414062 176.289062 C 262.050781 176.578125 263.234375 177.953125 263.269531 179.621094 C 258.9375 180.226562 255.570312 183.972656 255.570312 188.484375 C 255.570312 193 258.90625 196.746094 263.269531 197.351562 L 263.269531 200.011719 Z M 263.234375 194.761719 C 260.316406 194.152344 258.105469 191.589844 258.105469 188.484375 C 258.105469 185.382812 260.316406 182.820312 263.234375 182.210938 Z M 263.234375 194.761719 " fill-opacity="1" fill-rule="nonzero"/></g><path fill="#000000" d="M 189.148438 146.234375 L 160.285156 146.234375 C 157.621094 146.234375 155.472656 148.378906 155.472656 151.035156 L 155.472656 167.039062 C 155.472656 169.695312 157.621094 171.839844 160.285156 171.839844 L 189.148438 171.839844 C 191.808594 171.839844 193.960938 169.695312 193.960938 167.039062 L 193.960938 151.035156 C 193.960938 148.378906 191.808594 146.234375 189.148438 146.234375 Z M 191.394531 167.039062 C 191.394531 168.289062 190.398438 169.28125 189.148438 169.28125 L 160.285156 169.28125 C 159.03125 169.28125 158.039062 168.289062 158.039062 167.039062 L 158.039062 151.035156 C 158.039062 149.785156 159.03125 148.792969 160.285156 148.792969 L 189.148438 148.792969 C 190.398438 148.792969 191.394531 149.785156 191.394531 151.035156 Z M 191.394531 167.039062 " fill-opacity="1" fill-rule="nonzero"/><path fill="#000000" d="M 167.019531 182.085938 L 161.886719 182.085938 C 161.179688 182.085938 160.605469 182.660156 160.605469 183.363281 C 160.605469 184.070312 161.179688 184.644531 161.886719 184.644531 L 167.019531 184.644531 C 167.722656 184.644531 168.300781 184.070312 168.300781 183.363281 C 168.300781 182.660156 167.722656 182.085938 167.019531 182.085938 Z M 167.019531 182.085938 " fill-opacity="1" fill-rule="nonzero"/><path fill="#000000" d="M 210.636719 182.085938 L 205.503906 182.085938 C 204.800781 182.085938 204.222656 182.660156 204.222656 183.363281 C 204.222656 184.070312 204.800781 184.644531 205.503906 184.644531 L 210.636719 184.644531 C 211.34375 184.644531 211.917969 184.070312 211.917969 183.363281 C 211.917969 182.660156 211.34375 182.085938 210.636719 182.085938 Z M 210.636719 182.085938 " fill-opacity="1" fill-rule="nonzero"/><path fill="#000000" d="M 161.886719 205.132812 C 156.949219 205.132812 152.90625 209.164062 152.90625 214.09375 C 152.90625 219.023438 156.949219 223.058594 161.886719 223.058594 C 166.824219 223.058594 170.867188 219.023438 170.867188 214.09375 C 170.867188 209.164062 166.824219 205.132812 161.886719 205.132812 Z M 161.886719 220.496094 C 158.359375 220.496094 155.472656 217.617188 155.472656 214.09375 C 155.472656 210.574219 158.359375 207.691406 161.886719 207.691406 C 165.414062 207.691406 168.300781 210.574219 168.300781 214.09375 C 168.300781 217.617188 165.414062 220.496094 161.886719 220.496094 Z M 161.886719 220.496094 " fill-opacity="1" fill-rule="nonzero"/><path fill="#000000" d="M 236.292969 205.132812 C 231.355469 205.132812 227.316406 209.164062 227.316406 214.09375 C 227.316406 219.023438 231.355469 223.058594 236.292969 223.058594 C 241.234375 223.058594 245.273438 219.023438 245.273438 214.09375 C 245.273438 209.164062 241.234375 205.132812 236.292969 205.132812 Z M 236.292969 220.496094 C 232.765625 220.496094 229.878906 217.617188 229.878906 214.09375 C 229.878906 210.574219 232.765625 207.691406 236.292969 207.691406 C 239.824219 207.691406 242.710938 210.574219 242.710938 214.09375 C 242.710938 217.617188 239.824219 220.496094 236.292969 220.496094 Z M 236.292969 220.496094 " fill-opacity="1" fill-rule="nonzero"/><path fill="#000000" d="M 177.859375 115.152344 C 179.65625 115.152344 181.449219 114.480469 182.832031 113.101562 C 183.34375 112.589844 183.34375 111.789062 182.832031 111.277344 C 182.316406 110.765625 181.515625 110.765625 181.003906 111.277344 C 180.167969 112.109375 179.046875 112.589844 177.859375 112.589844 C 176.671875 112.589844 175.550781 112.140625 174.714844 111.277344 C 174.105469 110.667969 173.753906 109.835938 173.753906 108.941406 C 173.753906 108.042969 174.105469 107.246094 174.714844 106.605469 C 175.164062 106.15625 175.773438 105.898438 176.414062 105.898438 C 177.058594 105.898438 177.667969 106.15625 178.117188 106.605469 C 178.757812 107.246094 178.757812 108.300781 178.117188 108.941406 C 177.601562 109.453125 177.601562 110.253906 178.117188 110.765625 C 178.628906 111.277344 179.429688 111.277344 179.945312 110.765625 C 181.578125 109.132812 181.578125 106.445312 179.945312 104.8125 C 179.011719 103.882812 177.761719 103.371094 176.449219 103.371094 C 175.132812 103.371094 173.882812 103.882812 172.953125 104.8125 C 171.828125 105.933594 171.21875 107.40625 171.21875 108.941406 C 171.21875 110.476562 171.828125 111.980469 172.953125 113.070312 C 174.265625 114.445312 176.0625 115.152344 177.859375 115.152344 Z M 177.859375 115.152344 " fill-opacity="1" fill-rule="nonzero"/><path fill="#000000" d="M 198.386719 115.152344 C 200.179688 115.152344 201.976562 114.480469 203.355469 113.101562 C 203.871094 112.589844 203.871094 111.789062 203.355469 111.277344 C 202.84375 110.765625 202.042969 110.765625 201.527344 111.277344 C 200.695312 112.109375 199.570312 112.589844 198.386719 112.589844 C 197.199219 112.589844 196.074219 112.140625 195.242188 111.277344 C 194.632812 110.667969 194.28125 109.835938 194.28125 108.941406 C 194.28125 108.042969 194.632812 107.246094 195.242188 106.605469 C 195.691406 106.15625 196.300781 105.898438 196.941406 105.898438 C 197.582031 105.898438 198.191406 106.15625 198.640625 106.605469 C 199.285156 107.246094 199.285156 108.300781 198.640625 108.941406 C 198.128906 109.453125 198.128906 110.253906 198.640625 110.765625 C 199.15625 111.277344 199.957031 111.277344 200.46875 110.765625 C 202.105469 109.132812 202.105469 106.445312 200.46875 104.8125 C 199.539062 103.882812 198.289062 103.371094 196.972656 103.371094 C 195.660156 103.371094 194.410156 103.882812 193.476562 104.8125 C 192.355469 105.933594 191.746094 107.40625 191.746094 108.941406 C 191.746094 110.476562 192.355469 111.980469 193.476562 113.070312 C 194.792969 114.445312 196.589844 115.152344 198.386719 115.152344 Z M 198.386719 115.152344 " fill-opacity="1" fill-rule="nonzero"/><g fill="#040606" fill-opacity="1"><g transform="translate(37.429032, 305.566367)"><g><path d="M 42.699219 -74.601562 L 5.410156 -68.113281 C 1.054688 -67.195312 -0.359375 -64.414062 0.0664062 -61.953125 C 0.46875 -59.648438 2.546875 -57.714844 5.316406 -58.195312 L 17.234375 -60.269531 L 8.828125 -8.902344 C 8.652344 -8.082031 8.710938 -7.296875 8.816406 -6.683594 C 9.378906 -3.453125 12.53125 -2.179688 15.453125 -2.691406 C 18.066406 -3.144531 20.441406 -4.984375 20.929688 -8.078125 L 29.917969 -62.476562 L 42.449219 -64.660156 C 46.753906 -65.40625 48.144531 -68.34375 47.71875 -70.804688 C 47.316406 -73.109375 45.3125 -75.058594 42.699219 -74.601562 Z M 42.699219 -74.601562 "/></g></g></g><g fill="#040606" fill-opacity="1"><g transform="translate(83.402746, 297.563888)"><g><path d="M 35.097656 -29.082031 C 33.488281 -21.039062 30.542969 -14.742188 27.316406 -14.179688 C 26.238281 -13.992188 25.527344 -14.898438 25.339844 -15.976562 C 25.257812 -16.4375 25.230469 -17.066406 25.351562 -17.71875 L 27.695312 -31.117188 C 27.886719 -32.738281 27.953125 -34.175781 27.726562 -35.480469 C 26.453125 -42.785156 16.695312 -44.253906 12.160156 -44.8125 C 12.285156 -45.464844 12.242188 -46.171875 12.132812 -46.785156 C 11.519531 -50.324219 7.84375 -52.773438 4.382812 -52.171875 C -0.152344 -51.382812 -2.144531 -46.914062 -1.382812 -42.53125 C -1.050781 -40.609375 -0.0078125 -38.734375 1.488281 -37.410156 L -1.488281 -21.285156 C -1.535156 -20.644531 -1.503906 -20.015625 -1.421875 -19.554688 C -0.980469 -17.019531 1.246094 -16.058594 3.398438 -16.433594 C 5.550781 -16.808594 7.566406 -18.425781 8.058594 -21.046875 L 10.359375 -33.328125 C 12.628906 -33.011719 15.570312 -32.96875 16.023438 -30.355469 C 16.089844 -29.96875 16.09375 -29.496094 16.035156 -28.929688 L 14.285156 -18.960938 C 13.976562 -17.085938 13.949219 -15.417969 14.21875 -13.882812 C 15.382812 -7.191406 21.449219 -3.734375 27.832031 -4.84375 C 36.210938 -6.304688 42.523438 -15.085938 44.796875 -28.867188 C 44.871094 -29.355469 44.882812 -29.753906 44.816406 -30.136719 C 44.414062 -32.445312 41.609375 -33.539062 39.148438 -33.113281 C 37.148438 -32.765625 35.386719 -31.507812 35.097656 -29.082031 Z M 35.097656 -29.082031 "/></g></g></g><g fill="#040606" fill-opacity="1"><g transform="translate(119.766565, 291.234169)"><g><path d="M 11.59375 -55.800781 C 15.054688 -56.40625 17.402344 -59.746094 16.789062 -63.28125 C 16.1875 -66.742188 12.859375 -69.011719 9.398438 -68.410156 C 5.941406 -67.808594 3.578125 -64.546875 4.179688 -61.085938 C 4.796875 -57.550781 8.132812 -55.199219 11.59375 -55.800781 Z M 8.039062 -14.785156 L 12.296875 -40.398438 C 12.429688 -41.453125 12.625 -42.59375 12.492188 -43.363281 C 11.902344 -46.746094 9.058594 -48.074219 6.445312 -47.617188 C 4.0625 -47.203125 1.820312 -45.070312 1.21875 -41.242188 C 0.015625 -33.589844 -1.621094 -23.878906 -2.835938 -16.300781 C -3.03125 -14.679688 -3.285156 -12.5 -3.058594 -11.191406 C -1.800781 -3.964844 4.921875 -0.855469 11.992188 -2.085938 C 19.527344 -3.398438 27.027344 -9.457031 29.640625 -26.308594 C 29.714844 -26.796875 29.710938 -27.269531 29.628906 -27.734375 C 29.214844 -30.117188 26.652344 -31.175781 24.347656 -30.773438 C 22.273438 -30.414062 20.382812 -28.976562 19.875 -26.429688 C 18 -15.808594 14.476562 -11.945312 11.402344 -11.410156 C 9.632812 -11.101562 8.277344 -12.054688 8.023438 -13.515625 C 7.957031 -13.898438 7.96875 -14.296875 8.039062 -14.785156 Z M 8.039062 -14.785156 "/></g></g></g><g fill="#040606" fill-opacity="1"><g transform="translate(140.985199, 287.540718)"><g><path d="M 38.046875 -29.433594 C 36.683594 -22.703125 32.933594 -17.851562 27.964844 -15.007812 L 28.375 -16.742188 C 29.511719 -22.960938 30.628906 -29.726562 31.75 -36.023438 C 31.984375 -37.410156 31.988281 -38.757812 31.746094 -40.140625 C 30.664062 -46.367188 24.589844 -50.777344 18.589844 -49.734375 C 16.515625 -49.371094 14.121094 -48.558594 12.671875 -46.878906 C 12.503906 -48.753906 9.714844 -49.773438 6.945312 -49.289062 C 4.410156 -48.847656 2.1875 -47.035156 1.597656 -43.605469 L -8.125 13.851562 C -8.335938 14.917969 -8.339844 15.789062 -8.207031 16.558594 C -7.660156 19.710938 -4.761719 20.871094 -1.996094 20.386719 C 0.542969 19.945312 2.863281 18.273438 3.292969 15.269531 L 6.269531 -4.023438 C 8.976562 -2.59375 13.761719 -2.394531 20.144531 -3.507812 C 35.058594 -6.101562 45.175781 -13.960938 47.71875 -29.375 C 47.832031 -30.109375 47.878906 -30.75 47.785156 -31.289062 C 47.34375 -33.824219 44.921875 -34.988281 42.613281 -34.585938 C 40.539062 -34.226562 38.460938 -32.515625 38.046875 -29.433594 Z M 8.378906 -16.03125 L 11.421875 -34.941406 C 11.863281 -37.867188 13.636719 -39.523438 15.789062 -39.898438 C 17.632812 -40.21875 19.550781 -39.207031 19.886719 -37.285156 C 20.007812 -36.59375 19.972656 -35.875 19.878906 -35.066406 C 19.011719 -28.65625 17.851562 -22.59375 16.816406 -16.234375 C 16.375 -13.78125 14.539062 -12.035156 12.476562 -11.597656 C 10.476562 -11.25 8.753906 -12.058594 8.378906 -14.210938 C 8.285156 -14.75 8.253906 -15.378906 8.378906 -16.03125 Z M 8.378906 -16.03125 "/></g></g></g><g fill="#040606" fill-opacity="1"><g transform="translate(180.347308, 280.689097)"><g/></g></g><g fill="#ff385c" fill-opacity="1"><g transform="translate(209.705768, 275.578775)"><g><path d="M 39.046875 -29.609375 C 37.269531 -19.792969 33.695312 -15.292969 30.082031 -14.664062 C 28.699219 -14.421875 27.808594 -14.980469 27.582031 -16.285156 C 27.488281 -16.824219 27.535156 -17.464844 27.632812 -18.277344 L 30.65625 -36.386719 C 30.929688 -38.019531 30.996094 -39.457031 30.765625 -40.761719 C 29.695312 -46.914062 23.664062 -50.617188 17.515625 -49.546875 C 14.515625 -49.023438 12.253906 -47.917969 10.507812 -46.109375 C 9.808594 -47.410156 7.75 -47.847656 5.675781 -47.484375 C 3.523438 -47.109375 1.621094 -45.75 1.226562 -43.460938 L -5.363281 -5.324219 C -5.472656 -4.59375 -5.441406 -3.964844 -5.335938 -3.347656 C -4.839844 -0.503906 -2.355469 0.570312 0.105469 0.140625 C 2.792969 -0.328125 5.574219 -2.554688 6.125 -6.214844 C 7.519531 -14.140625 9.375 -25.316406 10.707031 -33.152344 C 12.113281 -37.355469 14.480469 -39.671875 16.632812 -40.046875 C 18.019531 -40.285156 19.179688 -39.539062 19.433594 -38.078125 C 19.527344 -37.539062 19.492188 -36.820312 19.382812 -36.089844 L 16.527344 -19.273438 C 16.21875 -17.398438 16.128906 -15.640625 16.410156 -14.023438 C 17.640625 -6.953125 24.140625 -4.203125 30.675781 -5.339844 C 38.519531 -6.703125 45.972656 -13.46875 48.667969 -29.382812 C 48.792969 -30.039062 48.839844 -30.679688 48.746094 -31.21875 C 48.316406 -33.679688 45.859375 -34.597656 43.554688 -34.195312 C 41.480469 -33.835938 39.371094 -32.28125 39.046875 -29.609375 Z M 39.046875 -29.609375 "/></g></g></g><g fill="#ff385c" fill-opacity="1"><g transform="translate(250.06731, 268.553187)"><g><path d="M 35.128906 -28.453125 C 33.296875 -18.945312 25.855469 -13.925781 19.320312 -12.789062 C 13.707031 -11.8125 9.703125 -13.886719 9.085938 -17.421875 C 8.964844 -18.117188 8.921875 -18.820312 9.097656 -19.644531 L 9.457031 -21.210938 C 11.925781 -20.214844 14.855469 -19.773438 17.929688 -20.308594 C 24.925781 -21.527344 30.316406 -26.980469 31.1875 -34.261719 C 31.316406 -35.789062 31.292969 -37.289062 31.066406 -38.597656 C 29.792969 -45.902344 23.050781 -50.507812 14.363281 -48.996094 C 7.519531 -47.804688 1.527344 -42.644531 0.175781 -34.488281 L -2.070312 -20.550781 C -2.367188 -18.597656 -2.429688 -16.6875 -2.121094 -14.917969 C -0.527344 -5.769531 9.070312 -1.578125 20.296875 -3.53125 C 30.984375 -5.394531 42.21875 -12.734375 44.738281 -28.304688 C 44.863281 -28.957031 44.84375 -29.511719 44.765625 -29.972656 C 44.351562 -32.355469 41.96875 -33.285156 39.664062 -32.886719 C 37.511719 -32.511719 35.40625 -30.957031 35.128906 -28.453125 Z M 15.710938 -39.886719 C 17.863281 -40.257812 19.554688 -38.730469 19.945312 -36.503906 C 20.050781 -35.886719 20.082031 -35.257812 19.957031 -34.605469 C 19.628906 -31.933594 17.484375 -30.609375 15.179688 -30.207031 C 13.71875 -29.953125 12.203125 -30.007812 11.019531 -30.433594 L 11.832031 -35.328125 C 12.261719 -37.859375 13.945312 -39.578125 15.710938 -39.886719 Z M 15.710938 -39.886719 "/></g></g></g><g fill="#ff385c" fill-opacity="1"><g transform="translate(286.508011, 262.210085)"><g><path d="M 37.035156 -28.863281 C 35.980469 -24.007812 33.839844 -20.386719 30.664062 -17.695312 C 30.644531 -18.71875 30.636719 -19.671875 30.460938 -20.667969 C 29.6875 -25.128906 26.566406 -28.941406 23.785156 -32.179688 C 21.792969 -34.527344 19.800781 -36.875 19.078125 -39.203125 C 21.070312 -40.5 22.332031 -43.253906 21.933594 -45.5625 C 21.355469 -48.867188 18.285156 -51.5 14.441406 -50.832031 C 11.519531 -50.324219 8.851562 -48.355469 7.914062 -45.101562 C 5.929688 -38.738281 3.730469 -32.253906 1.660156 -25.953125 C -3.261719 -23.75 -4.78125 -17.464844 -3.925781 -12.542969 C -2.613281 -5.011719 5.9375 -0.480469 19.542969 -2.847656 C 32.921875 -5.175781 44.03125 -12.339844 46.710938 -28.804688 C 46.8125 -29.140625 46.742188 -29.523438 46.691406 -29.832031 C 46.300781 -32.0625 43.484375 -33.234375 41.023438 -32.804688 C 39.179688 -32.484375 37.496094 -31.242188 37.035156 -28.863281 Z M 12.304688 -26.695312 L 12.742188 -28.277344 C 15.53125 -25.910156 18.015625 -22.542969 18.644531 -18.929688 C 19.277344 -15.316406 17.875 -11.984375 13.828125 -11.121094 C 11.214844 -10.664062 8.707031 -11.417969 7.511719 -13.269531 C 8.15625 -13.222656 8.769531 -13.328125 9.308594 -13.421875 C 13.765625 -14.199219 15.726562 -18.421875 15.070312 -22.1875 C 14.761719 -23.957031 13.839844 -25.617188 12.304688 -26.695312 Z M 12.304688 -26.695312 "/></g></g></g><g fill="#ff385c" fill-opacity="1"><g transform="translate(324.870685, 255.532432)"><g><path d="M 23.671875 -26.457031 C 22.070312 -17.464844 17.933594 -12.546875 13.476562 -11.773438 C 10.707031 -11.289062 8.722656 -12.6875 8.363281 -14.761719 C 8.269531 -15.300781 8.3125 -15.941406 8.375 -16.507812 L 12.175781 -39.269531 L 17.171875 -40.140625 C 21.09375 -40.820312 22.6875 -43.949219 22.246094 -46.488281 C 21.898438 -48.488281 20.28125 -50.027344 17.363281 -49.519531 L 13.902344 -48.917969 L 16.445312 -64.804688 C 16.503906 -65.371094 16.5 -65.84375 16.417969 -66.304688 C 15.925781 -69.152344 13.523438 -71.109375 10.140625 -70.519531 C 7.605469 -70.078125 5.757812 -67.9375 5.304688 -65.085938 L 2.140625 -46.871094 L -1.089844 -46.308594 C -5.242188 -45.585938 -6.554688 -42.664062 -6.125 -40.203125 C -5.75 -38.050781 -4.125 -36.433594 -2.046875 -36.792969 L 0.488281 -37.234375 L -2.742188 -17.582031 L -2.757812 -17.660156 C -3.050781 -15.707031 -3.0625 -13.960938 -2.78125 -12.347656 C -1.417969 -4.503906 6.382812 -1.109375 14.300781 -2.488281 C 24.140625 -4.203125 31.097656 -12.9375 33.285156 -26.308594 C 33.34375 -26.875 33.402344 -27.4375 33.324219 -27.898438 C 32.921875 -30.207031 30.4375 -31.28125 28.054688 -30.863281 C 26.132812 -30.53125 24.167969 -29.078125 23.671875 -26.457031 Z M 23.671875 -26.457031 "/></g></g></g></svg>